<?xml version="1.0" standalone="no"?><!DOCTYPE svg PUBLIC "-//W3C//DTD SVG 1.1//EN" "http://www.w3.org/Graphics/SVG/1.1/DTD/svg11.dtd"><svg t="1678528782464" class="icon" viewBox="0 0 1024 1024" version="1.1" xmlns="http://www.w3.org/2000/svg" p-id="6060" width="100" height="100" xmlns:xlink="http://www.w3.org/1999/xlink"><path d="M877.952621 344.694619a45.096938 45.096938 0 0 1 22.470645 38.961133l0.696319 397.205313a45.055978 45.055978 0 0 1-22.536181 39.141357l-343.318363 198.000545a44.826602 44.826602 0 0 1-44.867562-0.04096l-344.399707-199.409568a45.113322 45.113322 0 0 1-22.462453-38.952941l-0.65536-397.180738a45.121514 45.121514 0 0 1 22.536181-39.149549l343.318363-197.992353a44.826602 44.826602 0 0 1 44.818411 0z" fill="#E5EBFF" p-id="6061"></path><path d="M218.701737 282.40268a42.737643 42.737643 0 1 0 85.475287 0 42.737643 42.737643 0 1 0-85.475287 0Z" fill="#FFFFFF" p-id="6062"></path><path d="M261.439381 264.241025a18.161655 18.161655 0 1 0 18.161655 18.161655 18.186231 18.186231 0 0 0-18.161655-18.161655m0-24.575988a42.737643 42.737643 0 1 1-42.737644 42.737643 42.737643 42.737643 0 0 1 42.737644-42.737643z" fill="#396AFC" p-id="6063"></path><path d="M335.011697 123.953093a16.973816 16.973816 0 1 0 33.947632 0 16.973816 16.973816 0 1 0-33.947632 0Z" fill="#396AFC" p-id="6064"></path><path d="M617.955049 140.9351a11.321339 11.321339 0 1 0 22.642678 0 11.321339 11.321339 0 1 0-22.642678 0Z" fill="#396AFC" p-id="6065"></path><path d="M557.055751 8.191996m-8.191996 0a8.191996 8.191996 0 1 0 16.383992 0 8.191996 8.191996 0 1 0-16.383992 0Z" fill="#396AFC" p-id="6066"></path><path d="M499.113762 78.684122m-5.660669 0a5.660669 5.660669 0 1 0 11.321339 0 5.660669 5.660669 0 1 0-11.321339 0Z" fill="#396AFC" p-id="6067"></path><path d="M753.770152 152.248247m-11.321338 0a11.321339 11.321339 0 1 0 22.642677 0 11.321339 11.321339 0 1 0-22.642677 0Z" fill="#396AFC" p-id="6068"></path><path d="M448.192315 265.428865a22.634485 22.634485 0 1 0 45.26897 0 22.634485 22.634485 0 1 0-45.26897 0Z" fill="#396AFC" p-id="6069"></path><path d="M832.994946 305.037166a16.973816 16.973816 0 1 0 33.947632 0 16.973816 16.973816 0 1 0-33.947632 0Z" fill="#396AFC" p-id="6070"></path><path d="M294.920068 458.75178m24.575989 0l327.679842 0q24.575988 0 24.575989 24.575988l0 221.183894q0 24.575988-24.575989 24.575988l-327.679842 0q-24.575988 0-24.575989-24.575988l0-221.183894q0-24.575988 24.575989-24.575988Z" fill="#9AB3FF" p-id="6071"></path><path d="M319.496057 475.135772a8.191996 8.191996 0 0 0-8.191996 8.191996v221.183894a8.191996 8.191996 0 0 0 8.191996 8.191996h327.679842a8.191996 8.191996 0 0 0 8.191996-8.191996v-221.183894a8.191996 8.191996 0 0 0-8.191996-8.191996h-327.679842m0-16.383992h327.679842a24.575988 24.575988 0 0 1 24.575989 24.575988v221.183894a24.575988 24.575988 0 0 1-24.575989 24.575988h-327.679842a24.575988 24.575988 0 0 1-24.575989-24.575988v-221.183894a24.575988 24.575988 0 0 1 24.575989-24.575988z" fill="#262B3A" p-id="6072"></path><path d="M311.304061 794.623619m8.191996 0l327.679842 0q8.191996 0 8.191996 8.191996l0 0q0 8.191996-8.191996 8.191996l-327.679842 0q-8.191996 0-8.191996-8.191996l0 0q0-8.191996 8.191996-8.191996Z" fill="#192547" p-id="6073"></path><path d="M393.224021 802.815615V717.004456h16.383992v85.811159z" fill="#192547" p-id="6074"></path><path d="M719.380153 532.487936m0 24.575989l0 229.37589q0 24.575988-24.575988 24.575988l-155.647926 0q-24.575988 0-24.575988-24.575988l0-229.37589q0-24.575988 24.575988-24.575989l155.647926 0q24.575988 0 24.575988 24.575989Z" fill="#396AFC" p-id="6075"></path><path d="M702.996161 557.055733a8.191996 8.191996 0 0 0-8.191996-8.191996h-155.647926a8.191996 8.191996 0 0 0-8.191996 8.191996v229.37589a8.191996 8.191996 0 0 0 8.191996 8.191996h155.647926a8.191996 8.191996 0 0 0 8.191996-8.191996v-229.37589m16.383992 0v229.37589a24.575988 24.575988 0 0 1-24.575988 24.575988h-155.647926a24.575988 24.575988 0 0 1-24.575988-24.575988v-229.37589a24.575988 24.575988 0 0 1 24.575988-24.575989h155.647926a24.575988 24.575988 0 0 1 24.575988 24.575989z" fill="#262B3A" p-id="6076"></path><path d="M598.015731 770.04763m8.191996 0l16.383992 0q8.191996 0 8.191996 8.191996l0 0q0 8.191996-8.191996 8.191997l-16.383992 0q-8.191996 0-8.191996-8.191997l0 0q0-8.191996 8.191996-8.191996Z" fill="#282D3D" p-id="6077"></path><path d="M761.855652 663.551681m0 24.575989l0 98.303953q0 24.575988-24.575988 24.575988l-57.343972 0q-24.575988 0-24.575989-24.575988l0-98.303953q0-24.575988 24.575989-24.575989l57.343972 0q24.575988 0 24.575988 24.575989Z" fill="#FFFFFF" p-id="6078"></path><path d="M745.47166 688.12767a8.191996 8.191996 0 0 0-8.191996-8.191996h-57.343972a8.191996 8.191996 0 0 0-8.191996 8.191996v98.303953a8.191996 8.191996 0 0 0 8.191996 8.191996h57.343972a8.191996 8.191996 0 0 0 8.191996-8.191996v-98.303953m16.383992 0v98.303953a24.575988 24.575988 0 0 1-24.575988 24.575988h-57.343972a24.575988 24.575988 0 0 1-24.575989-24.575988v-98.303953a24.575988 24.575988 0 0 1 24.575989-24.575989h57.343972a24.575988 24.575988 0 0 1 24.575988 24.575989z" fill="#262B3A" p-id="6079"></path><path d="M708.607678 774.143628m-12.287994 0a12.287994 12.287994 0 1 0 24.575988 0 12.287994 12.287994 0 1 0-24.575988 0Z" fill="#282D3D" p-id="6080"></path></svg>